<svg width="128" height="128" viewBox="0 0 128 128" fill="none" xmlns="http://www.w3.org/2000/svg">
<rect width="128" height="128" rx="64" fill="#FFE9E9"/>
<path d="M61.6867 36.075C57.9617 36.4625 54.5992 37.425 51.4992 38.9875C48.4492 40.525 47.9117 41.075 48.6617 41.95C49.1117 42.475 49.4992 42.3875 51.1242 41.4625C58.5742 37.1875 67.7117 36.8875 75.4367 40.6875C77.1117 41.5125 79.2742 42.8875 80.2242 43.7125L80.7617 44.1875L80.1242 45.7375C79.7867 46.6 79.4992 47.425 79.4992 47.5875C79.4992 47.975 80.0367 48.5 80.4367 48.5C80.8617 48.5 87.9867 45.6375 88.2742 45.35C88.4117 45.2125 88.4992 44.95 88.4992 44.6625C88.4992 44.225 88.3492 44.05 86.1492 41.85C83.9992 39.7 83.7617 39.5 83.3617 39.5C82.7367 39.5125 82.5367 39.725 82.0492 40.95C81.7992 41.5625 81.5867 42.0875 81.5617 42.1C81.5367 42.125 80.9617 41.75 80.2867 41.2625C76.6867 38.675 72.6992 37.05 68.1242 36.3125C66.9742 36.125 62.7242 35.9625 61.6867 36.075ZM84.7367 43.3L85.7742 44.3375L84.1242 45C83.2242 45.3625 82.4617 45.625 82.4242 45.6C82.3867 45.55 83.6117 42.25 83.6742 42.25C83.6867 42.25 84.1617 42.725 84.7367 43.3Z" fill="#973131"/>
<path d="M41.8991 41.9123C39.8116 44.0123 39.4991 44.3748 39.4991 44.7123C39.4991 45.2373 39.9616 45.5998 41.1741 46.0623C41.6991 46.2623 42.1241 46.4623 42.1241 46.4998C42.1241 46.5373 41.8116 46.9873 41.4241 47.4998C39.3741 50.2498 37.5616 54.1872 36.7741 57.5622C35.0616 64.8747 36.3491 72.5997 40.3116 78.8747C40.8241 79.6872 41.3616 79.8372 41.9491 79.3372C42.4616 78.8872 42.3866 78.4872 41.5241 76.9872C37.1116 69.3497 36.8741 59.9997 40.8866 52.1623C41.5616 50.8498 43.0991 48.4748 43.7741 47.7248L44.1866 47.2623L45.6866 47.8748C46.5116 48.2123 47.3616 48.4873 47.5741 48.4998C48.0491 48.4998 48.4991 48.0623 48.4991 47.5873C48.4991 47.1373 45.6491 40.0248 45.3491 39.7248C45.2241 39.5998 44.9491 39.4998 44.7116 39.4998C44.3491 39.4998 44.0491 39.7623 41.8991 41.9123ZM44.8116 43.3998C45.0616 44.0373 45.3866 44.8248 45.5116 45.1623L45.7491 45.7498L45.3366 45.5873C45.1241 45.4873 44.3366 45.1748 43.5866 44.8623L42.2491 44.3248L43.2741 43.2873C43.8366 42.7123 44.3116 42.2498 44.3241 42.2498C44.3366 42.2498 44.5616 42.7748 44.8116 43.3998Z" fill="#973131"/>
<path d="M61.3615 44.176C53.749 45.276 47.449 50.4885 45.074 57.651C43.924 61.1135 43.749 64.2885 44.5115 68.051C46.2615 76.6885 52.799 82.6885 61.674 83.7635C63.3115 83.9635 66.424 83.8385 68.0615 83.501C71.574 82.801 74.799 81.226 77.374 78.976C80.974 75.826 83.249 71.1885 83.874 65.8135C84.5865 59.526 81.8865 52.9135 76.899 48.751C74.199 46.4885 71.224 45.051 67.8115 44.376C66.149 44.0385 62.9865 43.951 61.3615 44.176ZM67.899 46.4885C71.3865 47.2385 74.324 48.826 76.749 51.251C79.274 53.7635 80.774 56.626 81.5865 60.4885C82.0365 62.626 82.0615 65.6385 81.649 67.5885C80.874 71.176 79.2865 74.101 76.6865 76.6885C74.099 79.2885 71.2115 80.851 67.524 81.651C65.8615 82.0135 62.4865 82.0385 60.749 81.701C54.1865 80.426 48.8865 75.751 46.899 69.501C46.2615 67.5135 46.074 66.276 46.0865 64.1885C46.099 59.151 47.924 54.5635 51.249 51.251C54.049 48.451 57.349 46.876 61.8115 46.201C62.024 46.176 63.199 46.1635 64.4365 46.1885C66.1115 46.226 66.999 46.301 67.899 46.4885Z" fill="#973131"/>
<path d="M62.6864 49.6222C61.3364 49.9097 59.8864 50.7222 58.9739 51.6972C57.9364 52.8222 57.2364 54.6097 57.2239 56.1972C57.2114 58.0472 57.7989 59.6097 58.9864 60.8972C59.3489 61.2972 59.6364 61.6472 59.6114 61.6597C59.5864 61.6722 59.0864 61.9347 58.4989 62.2222C56.4364 63.2472 55.0364 64.6722 53.9989 66.8097C53.1739 68.5097 52.9614 69.5722 53.0239 71.6597C53.0614 73.1472 53.0989 73.3847 53.3989 73.9972C53.8364 74.8847 54.6114 75.6597 55.4864 76.0972L56.1864 76.4347L63.7364 76.4722C72.0989 76.5097 72.0239 76.5097 73.1989 75.7097C73.9364 75.1972 74.5614 74.3097 74.8239 73.3972C75.1239 72.3597 75.0989 69.9597 74.7614 68.6847C74.0114 65.8472 72.0989 63.4972 69.4989 62.2097C68.9114 61.9222 68.4114 61.6722 68.3864 61.6472C68.3489 61.6347 68.5864 61.3472 68.8989 61.0222C70.2114 59.6722 70.8114 58.1847 70.7989 56.2472C70.7739 53.3097 68.9864 50.8472 66.1739 49.8597C65.3489 49.5722 63.4864 49.4472 62.6864 49.6222ZM64.8739 51.6222C66.9489 52.0222 68.3739 53.4597 68.7614 55.5597C69.1489 57.6472 67.8364 60.0222 65.9114 60.7472C63.4614 61.6597 60.7989 60.7222 59.7614 58.5847C58.5614 56.1222 59.4614 53.2097 61.7614 52.0847C62.8489 51.5472 63.7614 51.4097 64.8739 51.6222ZM67.3114 63.4347C69.0989 63.9347 70.8989 65.3097 71.8489 66.9097C72.6364 68.2222 72.9114 69.2472 72.9739 71.0722C73.0239 72.5222 72.9989 72.7597 72.7739 73.1972C72.4739 73.7972 72.1864 74.0597 71.5864 74.3097C71.1989 74.4722 70.1364 74.4972 63.9739 74.4972C57.2864 74.4972 56.7739 74.4722 56.3114 74.2597C55.2989 73.7972 54.9989 73.1347 54.9989 71.3972C54.9989 67.1972 57.6989 63.8722 61.6114 63.2472C62.7239 63.0722 66.4364 63.1972 67.3114 63.4347Z" fill="#973131"/>
<path d="M86.075 48.6375C85.575 49.025 85.6375 49.55 86.3375 50.7125C88.6875 54.675 90 59.4125 90 64C90 68.575 88.6875 73.35 86.35 77.2375C85.725 78.2875 84.125 80.5375 83.9125 80.6625C83.8625 80.7 83.1375 80.45 82.3125 80.1125C81.4875 79.7875 80.65 79.5125 80.4625 79.5C80.0375 79.5 79.5 80 79.5 80.4C79.5 80.8375 82.45 88.125 82.7125 88.325C82.8375 88.4125 83.1375 88.5 83.3625 88.5C83.7625 88.5 84 88.3 86.15 86.15C88.35 83.95 88.5 83.775 88.5 83.3375C88.5 82.725 88.2625 82.5 86.9875 82C86.4125 81.775 85.9125 81.575 85.9 81.55C85.875 81.5375 86.225 81 86.6875 80.3625C89.3625 76.625 91.125 72.1625 91.775 67.5C91.975 65.9875 91.975 61.9125 91.775 60.4375C91.25 56.7 89.975 52.975 88.2125 49.9625C87.25 48.35 86.8 48.0625 86.075 48.6375ZM84.1625 83.0125L85.775 83.6625L84.7375 84.7C84.1625 85.275 83.6875 85.725 83.675 85.7125C83.625 85.675 82.375 82.5 82.375 82.4375C82.375 82.3125 82.5875 82.3875 84.1625 83.0125Z" fill="#973131"/>
<path d="M43.525 80.9882C41.4375 81.8257 39.7875 82.5632 39.6875 82.7007C39.5875 82.8257 39.5 83.1007 39.5 83.3132C39.5 83.6257 39.85 84.0257 41.9125 86.0882C44.0375 88.2257 44.3625 88.5007 44.725 88.5007C45.275 88.5007 45.525 88.2132 46.0125 86.9507C46.25 86.3632 46.4625 85.8757 46.5 85.8757C46.5375 85.8757 46.9875 86.1882 47.5 86.5757C52.425 90.2382 58.8625 92.2132 65.0625 91.9632C69.175 91.7882 72.725 90.8882 76.4375 89.0507C79.2625 87.6507 79.925 87.0507 79.4875 86.2757C79.3875 86.0882 79.15 85.8632 78.9625 85.7757C78.5625 85.5882 78.625 85.5632 76.4375 86.8007C74.0625 88.1382 70.925 89.2007 67.8125 89.7007C65.925 90.0132 62.225 90.0132 60.2625 89.7132C57.375 89.2632 54.4 88.3007 52 87.0382C50.775 86.3882 48.4 84.8382 47.725 84.2257L47.2625 83.8132L47.875 82.3132C48.2125 81.4882 48.4875 80.6382 48.5 80.4257C48.5 79.9382 48.05 79.5007 47.55 79.5007C47.35 79.5132 45.5375 80.1757 43.525 80.9882ZM45.5125 82.8382C45.3875 83.1757 45.0625 83.9632 44.8125 84.6007L44.3375 85.7757L43.2875 84.7257C42.4125 83.8632 42.275 83.6757 42.4625 83.6007C43.1875 83.2882 45.6875 82.2632 45.7125 82.2507C45.7375 82.2507 45.6375 82.5132 45.5125 82.8382Z" fill="#973131"/>
</svg>
