<svg width="20" height="20" viewBox="0 0 20 20" fill="none" xmlns="http://www.w3.org/2000/svg">
<path d="M12.033 19.1133C11.9232 19.1133 11.8573 19.1133 11.7914 19.1133C8.58951 19.1133 5.39316 19.1133 2.19132 19.1133C1.1039 19.1133 0.285585 18.4872 0.0549202 17.4822C0.010984 17.2955 0 17.1033 0 16.911C0 13.7641 0 10.6227 0 7.47574C0 6.16864 0.895199 5.27344 2.19681 5.27344C5.93138 5.27344 9.66595 5.27344 13.406 5.27344C14.7131 5.27344 15.6083 6.16864 15.6083 7.47024C15.6083 10.6227 15.6083 13.7751 15.6083 16.922C15.6083 18.2181 14.7241 19.0859 13.4225 19.1243C12.9886 19.1353 12.7415 19.0035 12.4998 18.641C11.5003 17.1472 10.4623 15.6753 9.43529 14.2035C9.34741 14.0771 9.34741 13.9893 9.43529 13.863C9.86916 13.2533 10.2865 12.6327 10.7149 12.0231C11.2696 11.2268 12.2527 11.2323 12.8074 12.0286C13.4664 12.9732 14.12 13.9234 14.779 14.868C14.823 14.9284 14.8669 14.9888 14.9328 15.0822C14.9328 14.9778 14.9438 14.9229 14.9438 14.8625C14.9438 12.3911 14.9438 9.91969 14.9438 7.44828C14.9438 6.53111 14.3397 5.927 13.4225 5.927C9.67144 5.927 5.92588 5.927 2.17484 5.927C1.28513 5.927 0.664534 6.52563 0.659042 7.39886C0.65355 10.1174 0.659042 12.836 0.659042 15.5545C0.659042 15.5765 0.659039 15.5929 0.670023 15.6643C0.730436 15.582 0.774377 15.527 0.812821 15.4721C1.92221 13.8739 3.0261 12.2813 4.13549 10.6831C4.4705 10.1998 4.98675 10.0076 5.51948 10.1613C5.82703 10.2492 6.04122 10.4469 6.21696 10.7051C7.23298 12.1714 8.24901 13.6378 9.26503 15.1041C10.1383 16.3618 11.006 17.6195 11.8792 18.8772C11.9232 18.9376 11.9616 19.0035 12.033 19.1078V19.1133Z" fill="#973131"/>
<path d="M4.48438 2.41667C4.64914 1.62582 5.45097 0.9503 6.26928 0.889888C6.37363 0.884396 6.47249 0.878906 6.57684 0.878906C10.3169 0.878906 14.0625 0.878906 17.8025 0.878906C18.7307 0.878906 19.4227 1.27982 19.8016 2.13108C19.9279 2.41118 19.9828 2.7407 19.9883 3.04825C19.9993 6.22264 19.9993 9.39153 19.9938 12.5659C19.9938 13.4446 19.5984 14.1037 18.813 14.5101C18.7142 14.565 18.5989 14.5925 18.4561 14.6474V14.3508C18.4561 11.3082 18.4561 8.26567 18.4561 5.22859C18.4561 3.92149 17.6762 2.86152 16.4625 2.52651C16.1879 2.44962 15.8968 2.42216 15.6112 2.42216C11.992 2.41667 8.37272 2.42216 4.75349 2.42216C4.6711 2.42216 4.58873 2.42216 4.48987 2.42216L4.48438 2.41667Z" fill="#973131"/>
<path d="M2.27734 4.6143C2.4476 4.02665 2.7881 3.60926 3.29886 3.32917C3.60092 3.16441 3.92495 3.08203 4.26545 3.08203C8.0824 3.08203 11.9049 3.08203 15.7218 3.08203C16.9026 3.08203 17.7868 3.9992 17.7978 5.21294C17.8033 6.53651 17.7978 7.86558 17.7978 9.18915C17.7978 11.0509 17.7978 12.9127 17.7978 14.769C17.7978 15.7466 17.2541 16.5155 16.3699 16.8121C16.3424 16.8231 16.3204 16.8286 16.2655 16.8395C16.2655 16.7462 16.2655 16.6693 16.2655 16.5869C16.2655 13.5224 16.2655 10.4633 16.2655 7.39876C16.2655 6.02576 15.3593 4.92185 14.0248 4.65824C13.8106 4.6143 13.5854 4.60881 13.3712 4.60881C9.77395 4.60881 6.17668 4.60881 2.57391 4.60881C2.48604 4.60881 2.39817 4.60881 2.28283 4.60881L2.27734 4.6143Z" fill="#973131"/>
<path d="M11.2024 8.68326C11.2024 9.35328 10.6752 9.886 10.0052 9.886C9.32415 9.886 8.79143 9.35329 8.79692 8.67228C8.79692 8.00225 9.33513 7.47502 10.0052 7.48051C10.6752 7.48051 11.2024 8.01323 11.2024 8.68326Z" fill="#973131"/>
</svg>
