<svg width="128" height="128" viewBox="0 0 128 128" fill="none" xmlns="http://www.w3.org/2000/svg">
<rect width="128" height="128" rx="64" fill="#FFE9E9"/>
<path d="M61.6244 33.1358C58.9494 33.4483 56.6994 34.1233 54.1869 35.3733C47.3744 38.7733 42.9494 45.1858 42.1119 52.8858C41.9119 54.6608 42.0369 57.9358 42.3619 59.7233C43.0244 63.2358 44.6244 66.7483 46.8369 69.4983C47.2619 70.0108 48.9494 71.8983 50.6119 73.6733C52.2619 75.4483 53.5869 76.9608 53.5494 77.0108C53.5119 77.0733 53.3994 77.1233 53.2994 77.1233C52.9369 77.1233 52.1494 77.6233 51.7244 78.1233C50.8369 79.1483 50.7619 80.5608 51.5244 81.6483C51.7619 81.9983 51.7619 81.9983 51.5244 82.3358C50.9994 83.0983 50.8744 83.9858 51.1494 84.9233C51.3369 85.5608 52.3869 86.6483 52.9744 86.8108C53.3369 86.9233 53.4244 87.0358 53.6369 87.6233C55.2494 92.2233 59.8619 95.2858 64.6744 94.9608C69.0994 94.6608 72.8994 91.7733 74.3619 87.6108C74.5744 87.0358 74.6619 86.9233 75.0244 86.8108C75.2494 86.7483 75.7244 86.4108 76.0619 86.0608C77.0744 85.0608 77.2619 83.9358 76.6494 82.6983L76.2869 81.9983L76.6494 81.2983C77.2119 80.1733 77.0869 79.0608 76.2744 78.1233C75.8494 77.6233 75.0619 77.1233 74.6994 77.1233C74.5994 77.1233 74.4869 77.0733 74.4494 77.0108C74.4119 76.9608 75.7369 75.4483 77.3869 73.6733C81.6119 69.1358 82.3619 68.1608 83.7119 65.4608C85.1244 62.6358 85.8494 59.6983 85.9619 56.2483C86.1119 51.9858 85.3619 48.5358 83.5494 44.9983C80.1119 38.3358 73.6619 33.9108 66.2244 33.1233C64.8619 32.9858 62.9494 32.9858 61.6244 33.1358ZM66.1494 35.1358C74.0869 35.9858 80.7619 41.5233 83.1244 49.2233C83.8119 51.4733 83.9244 52.4233 83.9244 55.4358C83.9244 58.5108 83.7619 59.6108 82.9369 62.0733C82.4994 63.4108 81.4619 65.5733 80.8494 66.4608C80.4869 66.9858 80.4744 66.9983 79.7494 66.9983H78.9994V59.9983V52.9983H74.9994H70.9994V47.9983V42.9983H63.9994H56.9994V47.9983V52.9983H52.9994H48.9994V59.9983V66.9983H48.2494C47.5244 66.9983 47.5119 66.9983 47.1369 66.4608C45.9994 64.7983 44.7494 61.5858 44.2994 59.1858C43.9369 57.2858 43.9744 53.1983 44.3494 51.2858C45.1494 47.2608 47.0119 43.7608 49.8494 40.9233C54.1869 36.5858 60.0869 34.4858 66.1494 35.1358ZM68.9994 55.9983V66.9983H67.9994H66.9994V62.9983V58.9983H63.9994H60.9994V62.9983V66.9983H59.9994H58.9994V55.9983V44.9983H63.9994H68.9994V55.9983ZM56.9994 60.9983V66.9983H53.9994H50.9994V60.9983V54.9983H53.9994H56.9994V60.9983ZM76.9994 60.9983V66.9983H73.9994H70.9994V60.9983V54.9983H73.9994H76.9994V60.9983ZM64.9994 63.9983V66.9983H63.9994H62.9994V63.9983V60.9983H63.9994H64.9994V63.9983ZM78.8744 69.0608C78.8744 69.0983 77.7869 70.2983 76.4744 71.7233C73.0244 75.4233 72.7994 75.6858 72.4119 76.3733L72.0619 76.9983H63.9994H55.9369L55.5869 76.3733C55.1994 75.6858 54.9744 75.4233 51.5369 71.7233C50.2119 70.2983 49.1244 69.0983 49.1244 69.0608C49.1244 69.0233 55.8119 68.9983 63.9994 68.9983C72.1869 68.9983 78.8744 69.0233 78.8744 69.0608ZM74.6869 79.3108C74.8869 79.4983 74.9994 79.7608 74.9994 79.9983C74.9994 80.2358 74.8869 80.4983 74.6869 80.6858L74.3869 80.9983H63.9994H53.6119L53.3119 80.6858C53.1119 80.4983 52.9994 80.2358 52.9994 79.9983C52.9994 79.7608 53.1119 79.4983 53.3119 79.3108L53.6119 78.9983H63.9994H74.3869L74.6869 79.3108ZM74.6869 83.3108C74.8869 83.4983 74.9994 83.7608 74.9994 83.9983C74.9994 84.2358 74.8869 84.4983 74.6869 84.6858L74.3869 84.9983H63.9994H53.6119L53.3119 84.6858C53.1119 84.4983 52.9994 84.2358 52.9994 83.9983C52.9994 83.7608 53.1119 83.4983 53.3119 83.3108L53.6119 82.9983H63.9994H74.3869L74.6869 83.3108ZM72.1869 87.6983C70.5494 91.4108 66.3619 93.5858 62.3494 92.8233C59.4994 92.2733 56.9494 90.2733 55.8119 87.6983L55.4994 86.9983H63.9994H72.4994L72.1869 87.6983Z" fill="#973131"/>
<path d="M63.125 38V39H64H64.875V38V37H64H63.125V38Z" fill="#973131"/>
<path d="M60.1253 37.3966C59.8128 37.4591 59.5253 37.5591 59.4753 37.6091C59.3878 37.6841 59.7878 39.3216 59.9128 39.4466C59.9503 39.4966 61.3878 39.2466 61.4753 39.1841C61.4878 39.1716 61.4378 38.7341 61.3628 38.2091C61.2003 37.1341 61.2378 37.1591 60.1253 37.3966Z" fill="#973131"/>
<path d="M66.6997 37.8834C66.6497 38.2459 66.5872 38.6834 66.5497 38.8584C66.4747 39.1834 66.4997 39.2084 67.2622 39.3459C67.6997 39.4209 68.0872 39.4459 68.1372 39.3959C68.2747 39.2334 68.6122 37.6834 68.5247 37.6084C68.4372 37.5209 67.2247 37.2459 66.9497 37.2459C66.8372 37.2459 66.7497 37.4834 66.6997 37.8834Z" fill="#973131"/>
<path d="M61 48V49H62H63V48V47H62H61V48Z" fill="#973131"/>
<path d="M65 48V49H66H67V48V47H66H65V48Z" fill="#973131"/>
<path d="M61 52V53H62H63V52V51H62H61V52Z" fill="#973131"/>
<path d="M65 52V53H66H67V52V51H66H65V52Z" fill="#973131"/>
<path d="M61 56V57H62H63V56V55H62H61V56Z" fill="#973131"/>
<path d="M65 56V57H66H67V56V55H66H65V56Z" fill="#973131"/>
<path d="M86 34V35H85H84V36V37H85H86V38V39H87H88V38V37H89H90V36V35H89H88V34V33H87H86V34ZM88 36V37H87H86V36V35H87H88V36Z" fill="#973131"/>
<path d="M39 39V40H38H37V41V42H38H39V43V44H40H41V43V42H42H43V41V40H42H41V39V38H40H39V39ZM41 41V42H40H39V41V40H40H41V41Z" fill="#973131"/>
<path d="M35 52V53H34H33V54V55H34H35V56V57H36H37V56V55H38H39V54V53H38H37V52V51H36H35V52ZM37 54V55H36H35V54V53H36H37V54Z" fill="#973131"/>
<path d="M91 58V59H90H89V60V61H90H91V62V63H92H93V62V61H94H95V60V59H94H93V58V57H92H91V58ZM93 60V61H92H91V60V59H92H93V60Z" fill="#973131"/>
<path d="M40 68V69H39H38V70V71H39H40V72V73H41H42V72V71H43H44V70V69H43H42V68V67H41H40V68ZM42 70V71H41H40V70V69H41H42V70Z" fill="#973131"/>
<path d="M84 72V73H83H82V74V75H83H84V76V77H85H86V76V75H87H88V74V73H87H86V72V71H85H84V72ZM86 74V75H85H84V74V73H85H86V74Z" fill="#973131"/>
</svg>
