<svg width="128" height="129" viewBox="0 0 128 129" fill="none" xmlns="http://www.w3.org/2000/svg">
<rect width="128" height="128.014" rx="64" fill="#FFE9E9"/>
<path d="M55.4945 32.5775C55.1478 32.8975 49.8935 37.6717 43.7991 43.1927C37.718 48.7137 32.5704 53.4079 32.3704 53.6213C31.8903 54.1147 31.8769 54.7015 32.3303 55.1416C32.6371 55.4616 32.7171 55.475 34.4641 55.475H36.2644V66.877V78.2924L36.5978 78.6125L36.9178 78.9459H50.4003C59.1352 78.9459 63.8694 78.9859 63.8694 79.0792C63.8694 79.1459 63.696 79.866 63.4693 80.6795C62.9759 82.4798 62.9626 82.9333 63.3893 83.3333C63.6694 83.6 63.9094 83.6401 65.8164 83.7467C66.9766 83.8134 68.0168 83.8801 68.1102 83.8801C68.2302 83.8801 68.2702 85.1203 68.2702 89.6145V95.3622L68.6036 95.6822C68.7769 95.8689 69.0837 96.0156 69.2704 96.0156C69.4571 96.0156 71.4708 95.0821 73.7378 93.9486L77.8719 91.8815L82.006 93.9486C84.2731 95.0821 86.2868 96.0156 86.4735 96.0156C86.6602 96.0156 86.9669 95.8689 87.1403 95.6822L87.4737 95.3622V89.6145C87.4737 85.1203 87.5137 83.8801 87.647 83.8801C87.727 83.8801 88.7672 83.8134 89.9274 83.7467C91.8345 83.6401 92.0745 83.6 92.3545 83.3333C92.808 82.9066 92.768 82.5198 92.0078 79.6793C91.6478 78.3191 91.341 77.1189 91.341 77.0122C91.341 76.9055 92.3679 76.012 93.6081 74.9985C95.8885 73.1715 96.1286 72.8914 95.9552 72.238C95.9152 72.0513 95.0084 71.2245 93.6081 70.0909C92.3679 69.0774 91.341 68.1706 91.341 68.0772C91.341 67.9705 91.6478 66.7703 92.0078 65.4101C92.768 62.5562 92.808 62.1828 92.3545 61.7561C92.0478 61.4627 91.8611 61.4494 89.0873 61.3027C86.6202 61.1827 86.1401 61.1293 86.0734 60.9559C86.0201 60.8359 85.5667 59.6357 85.0466 58.2755C84.5265 56.9152 83.993 55.6883 83.8597 55.5416C83.3529 55.0082 82.8995 55.1816 80.339 56.8619L77.9386 58.4355L77.3785 58.1421L76.8051 57.8354V56.6618V55.475H78.6054C80.3524 55.475 80.4324 55.4616 80.7391 55.1416C81.1925 54.7015 81.1792 54.1147 80.7124 53.6213C80.4991 53.4079 75.3648 48.7137 69.2704 43.1927C63.1893 37.6717 57.9216 32.8975 57.5749 32.5775C57.1215 32.1641 56.8281 32.004 56.5347 32.004C56.2413 32.004 55.948 32.1641 55.4945 32.5775ZM66.9099 43.9395L77.1785 53.2746L76.1783 53.3412C74.8314 53.4346 74.6713 53.6213 74.6713 55.1549C74.6713 55.7683 74.6447 56.2751 74.6047 56.2751C74.5647 56.2751 74.1779 56.0484 73.7645 55.7817C72.8977 55.2216 72.2709 55.1416 71.8842 55.5416C71.7508 55.6883 71.2174 56.9152 70.6973 58.2755C70.1772 59.6357 69.7238 60.8359 69.6704 60.9559C69.6038 61.1293 69.1237 61.1827 66.6566 61.3027C62.5358 61.5027 62.6425 61.3427 63.736 65.4101C64.1094 66.7703 64.4028 67.9705 64.4028 68.0772C64.4028 68.1706 63.376 69.0774 62.1357 70.0909C59.8687 71.9313 59.6286 72.2113 59.7887 72.8514C59.8287 73.0248 60.7355 73.8516 62.0691 74.9318C63.2826 75.9053 64.2695 76.7321 64.2695 76.7588C64.2695 76.7855 61.0956 76.8121 57.2015 76.8121H50.1336V75.7453V74.6784H49.0667H47.9998V75.7453V76.8121H43.199H38.3981V65.4234C38.3981 52.1677 38.5581 53.4479 36.9045 53.3412L35.9177 53.2746L46.1862 43.9129C51.8405 38.7653 56.5081 34.5645 56.5481 34.5778C56.6014 34.5912 61.2556 38.8053 66.9099 43.9395ZM75.3915 59.3957L77.5119 60.7826L76.6584 60.8759C74.9781 61.076 73.1111 61.6894 71.8708 62.4762C71.5775 62.6629 71.3107 62.8096 71.2841 62.8096C71.2574 62.8096 71.4174 62.3162 71.6575 61.7027C71.8975 61.1026 72.3243 60.0224 72.591 59.3023C72.871 58.5955 73.1377 58.0087 73.1777 58.0087C73.2311 58.0087 74.2313 58.6355 75.3915 59.3957ZM83.1395 59.3023C83.4196 60.0224 83.8463 61.1026 84.0864 61.7161C84.3264 62.3295 84.4865 62.8096 84.4331 62.7829C84.3798 62.7563 83.953 62.5162 83.4729 62.2495C82.3394 61.6094 80.8858 61.1293 79.4322 60.9293L78.2587 60.7692L80.3657 59.3957C81.5259 58.6355 82.5128 58.0087 82.5528 58.0087C82.6061 58.0087 82.8728 58.5955 83.1395 59.3023ZM80.6991 63.3831C82.2594 63.8765 83.4063 64.5833 84.6198 65.7968C86.3401 67.5171 87.2603 69.5042 87.4203 71.8513C87.7004 75.6519 85.5933 79.3859 82.246 81.0529C80.6191 81.8797 79.7123 82.0798 77.7386 82.0664C76.2316 82.0664 75.9649 82.0264 74.8981 81.653C73.2711 81.0796 72.3776 80.5195 71.1374 79.2793C69.9105 78.0657 69.217 76.9455 68.7103 75.4119C68.4169 74.5051 68.3635 74.105 68.3502 72.6781C68.3369 70.7044 68.5369 69.8109 69.3637 68.1439C70.3372 66.1836 72.4843 64.2765 74.538 63.5297C76.4183 62.863 78.8588 62.7963 80.6991 63.3831ZM69.6838 64.1699C68.6169 65.2234 67.6167 66.6636 67.1366 67.8505C66.9366 68.3173 66.7899 68.5306 66.7499 68.4106C66.4965 67.7038 65.483 63.6764 65.5497 63.6231C65.5897 63.5831 66.6299 63.4764 67.8434 63.3964C69.0703 63.3164 70.2039 63.2364 70.3639 63.2364C70.6039 63.2097 70.4572 63.4097 69.6838 64.1699ZM88.3138 63.4231C90.2608 63.5031 90.3008 63.5164 90.2208 63.7965C89.6207 66.1702 88.9939 68.4106 88.9273 68.4106C88.8739 68.4106 88.7406 68.1572 88.6205 67.8372C88.2471 66.8503 87.0736 65.17 86.0467 64.1565L85.0466 63.183L85.7 63.263C86.0467 63.303 87.2336 63.3697 88.3138 63.4231ZM93.1947 72.5447C93.1947 72.5981 90.3542 74.9318 89.4207 75.6386L89.114 75.8653L89.314 75.1719C89.594 74.1983 89.594 71.0111 89.3273 69.9309L89.114 69.1041L91.1543 70.7977C92.2745 71.7179 93.1947 72.5047 93.1947 72.5447ZM66.4432 69.9042C66.0298 71.4645 66.1231 74.5717 66.6032 75.7986C66.6699 75.932 65.7764 75.2652 64.6295 74.3317C63.4827 73.3849 62.5492 72.5847 62.5492 72.5447C62.5492 72.4914 66.5232 69.2374 66.6166 69.2108C66.6299 69.2108 66.5499 69.5308 66.4432 69.9042ZM89.6474 79.0659C89.9941 80.3461 90.2342 81.4263 90.2075 81.4797C90.1808 81.533 89.2607 81.613 88.1805 81.6664C87.0869 81.7197 85.9401 81.7864 85.62 81.8397L85.0466 81.9197L86.0467 80.9329C87.1136 79.8794 88.2605 78.2124 88.6339 77.1855C88.7539 76.8388 88.9006 76.5854 88.9406 76.6388C88.9939 76.7055 89.314 77.7857 89.6474 79.0659ZM67.1233 77.2389C67.4967 78.2391 68.6703 79.9194 69.6971 80.9329L70.6973 81.9064L70.0438 81.8264C69.6971 81.7864 68.5102 81.7197 67.43 81.6664C65.483 81.5863 65.443 81.573 65.523 81.293C66.1231 78.9192 66.7499 76.6788 66.8166 76.6788C66.8699 76.6788 67.0033 76.9322 67.1233 77.2389ZM72.2709 82.8399C73.4044 83.48 74.5647 83.8668 76.1649 84.1335L77.4719 84.3468L75.3248 85.7338C74.1513 86.4939 73.1644 87.0807 73.1244 87.0407C73.0044 86.9206 71.2307 82.2665 71.3241 82.3065C71.3641 82.3331 71.7908 82.5732 72.2709 82.8399ZM83.593 84.6402C83.0862 85.9338 82.6461 87.014 82.6195 87.054C82.5794 87.0807 81.5926 86.4939 80.4191 85.7338L78.2987 84.3468L79.5789 84.1335C81.2992 83.8401 82.8862 83.2667 83.9397 82.5732C84.1664 82.4265 84.3798 82.2931 84.4198 82.2931C84.4731 82.2798 84.0997 83.3333 83.593 84.6402ZM71.0707 87.8141C72.0175 90.2813 72.2042 90.3213 74.738 88.6676C75.6982 88.0408 76.5517 87.4941 76.645 87.4274C76.7651 87.3607 76.8051 87.6408 76.8051 88.6676V90.0145L73.6045 91.6148L70.4039 93.2151V89.7212C70.4039 87.8008 70.4306 86.2672 70.4572 86.2939C70.4973 86.3205 70.764 87.014 71.0707 87.8141ZM85.3399 89.7478V93.2151L82.1394 91.6148L78.9388 90.0145V88.6676C78.9388 87.6408 78.9788 87.3607 79.1121 87.4274C79.1922 87.4941 80.0457 88.0408 80.9925 88.641C81.926 89.2544 82.8728 89.8012 83.0862 89.8412C83.6996 89.9612 84.033 89.5211 84.6732 87.8141C84.9932 86.974 85.2733 86.2805 85.2999 86.2805C85.3133 86.2805 85.3399 87.8408 85.3399 89.7478Z" fill="#973131"/>
<path d="M48.3334 55.8027L48 56.1228V64.3376V72.5391H49.0669H50.1337V65.071V57.603H56.5349H62.936V58.6699V59.7367H64.0029H65.0698V57.9364C65.0698 56.1894 65.0564 56.1094 64.7364 55.8027L64.4163 55.4693H56.5349H48.6535L48.3334 55.8027Z" fill="#973131"/>
<path d="M77.1651 65.3063C77.0584 65.4397 76.565 66.3865 76.0715 67.4133C75.5915 68.4269 75.1781 69.2937 75.1514 69.307C75.1247 69.3337 74.1779 69.5071 73.0577 69.6804C71.2173 69.9605 70.9773 70.0405 70.7106 70.3472C70.1105 71.0407 70.2572 71.3474 72.3242 73.4411L73.5244 74.668L73.1644 76.8951C72.8576 78.8688 72.831 79.1488 73.0043 79.4822C73.4177 80.269 73.7778 80.2157 76.0049 79.0021L77.8719 77.9886L79.7255 79.0021C80.7391 79.5622 81.6992 80.0156 81.8459 80.0156C82.286 80.0156 82.8461 79.4555 82.8594 79.0021C82.8594 78.7887 82.7261 77.7352 82.5394 76.655L82.2193 74.6813L83.6996 73.1877C85.2065 71.6541 85.4199 71.3074 85.2866 70.7339C85.1532 70.2272 84.7265 70.0538 82.6194 69.6804C81.5125 69.4937 80.6057 69.3204 80.579 69.307C80.5657 69.2803 80.1523 68.4269 79.6722 67.4133C79.1788 66.3865 78.6854 65.4397 78.5787 65.3063C78.4453 65.1729 78.1653 65.0796 77.8719 65.0796C77.5785 65.0796 77.2984 65.1729 77.1651 65.3063ZM79.5655 71.3207C79.7656 71.4007 80.4323 71.5341 81.0458 71.6274L82.1527 71.7875L81.0858 72.881C80.4857 73.4811 80.0056 74.0946 80.0056 74.2279C80.0056 74.4946 80.219 75.9349 80.3523 76.6017L80.4323 76.9884L79.2988 76.3616C78.672 76.0282 78.0319 75.7482 77.8585 75.7482C77.6985 75.7482 77.0584 76.0149 76.4583 76.3616C75.7648 76.735 75.3381 76.8951 75.3381 76.7884C75.3381 76.695 75.4314 76.1483 75.5381 75.5748C75.8448 73.9745 75.8582 74.0012 74.7246 72.8143C74.1645 72.2275 73.7511 71.7475 73.8178 71.7475C73.8845 71.7475 74.4713 71.6541 75.1247 71.5608C76.5383 71.3207 76.6983 71.2007 77.4051 69.7471L77.9252 68.6669L78.5653 69.9205C79.0454 70.894 79.2721 71.2007 79.5655 71.3207Z" fill="#973131"/>
</svg>
