<svg width="128" height="128" viewBox="0 0 128 128" fill="none" xmlns="http://www.w3.org/2000/svg">
<rect width="128" height="128" rx="64" fill="#FFE9E9"/>
<path d="M63.6099 31.0181C63.3599 31.1744 63.0161 31.44 62.8755 31.5962C62.4068 32.1275 61.8443 33.565 61.6568 34.7056L61.4849 35.7994L60.7505 36.1119C59.7818 36.5025 58.6568 37.6744 58.2193 38.7369C57.9068 39.4712 57.7818 39.6119 57.2818 39.7681C56.4849 40.0025 55.313 41.065 54.813 42.0337C54.4224 42.7681 54.3911 43.0025 54.3443 45.1119L54.2818 47.4087L49.1099 49.9087C44.438 52.1587 43.8911 52.4556 43.6568 52.9244C43.4068 53.4087 43.3755 54.1275 43.3755 61.065C43.3755 65.2681 43.3286 68.69 43.2661 68.69C43.188 68.69 42.2818 68.5806 41.2193 68.4244C39.0943 68.1431 38.7036 68.2212 38.3755 69.0025C37.9224 70.0962 39.8599 78.6119 41.4849 82.7369C43.9536 88.9087 46.8755 92.2837 50.9536 93.6431C52.0786 94.0181 52.438 94.065 54.4693 94.065C56.813 94.065 57.6568 93.9244 59.6724 93.19C60.1724 93.0181 60.6099 92.9087 60.6724 92.9712C60.7193 93.0181 60.7974 93.8462 60.8286 94.815C60.8755 96.4712 60.9068 96.5962 61.2818 96.9244C61.813 97.4087 62.3755 97.3775 62.9224 96.8306C63.3443 96.4087 63.3755 96.2837 63.3755 95.2681C63.3755 94.6587 63.4068 94.1587 63.4536 94.1587C63.4849 94.1587 63.8599 94.3619 64.2661 94.5962C68.0786 96.815 72.0474 97.2212 75.3286 95.7369C79.0786 94.0337 83.063 89.565 86.7974 82.9244C88.1724 80.4556 89.7818 77.0025 89.7818 76.5181C89.7818 76.3462 89.6255 76.0337 89.438 75.7994C89.1255 75.4712 88.8443 75.3775 87.438 75.1587C86.5474 75.0337 85.7661 74.8931 85.7349 74.8462C85.688 74.815 85.6255 69.8619 85.5943 63.8775C85.5318 55.5494 85.4693 52.9087 85.3286 52.7056C85.1724 52.4712 78.1255 48.94 75.6255 47.8306L74.8286 47.4712L74.7505 45.2212C74.688 43.1587 74.6411 42.8775 74.2661 42.1119C73.7661 41.0962 73.2661 40.5806 72.1568 39.9712C71.4536 39.5806 71.2661 39.3775 70.8911 38.5962C70.3911 37.5337 69.313 36.4712 68.313 36.0337C67.6724 35.7681 67.6255 35.7056 67.5318 34.9869C67.0786 31.7525 65.313 29.9556 63.6099 31.0181ZM64.9224 35.0025C65.0161 35.5181 65.0943 36.2369 65.0943 36.5962C65.0943 37.5181 65.563 38.0181 66.563 38.2056C67.8755 38.44 68.6099 39.2212 68.8286 40.565C68.9849 41.5025 69.3911 41.9712 70.0474 41.9712C70.6568 41.9712 71.5161 42.4556 71.8286 42.9712C72.1099 43.44 72.1255 44.065 72.1255 59.2525V75.0494L71.1568 75.2525C68.563 75.7525 65.6255 77.0494 64.1568 78.3462C63.7193 78.7212 63.3443 79.0181 63.313 78.9869C63.2818 78.9556 63.0005 78.5181 62.688 78.0181C62.3755 77.5181 61.8286 76.7994 61.4849 76.4244L60.8286 75.7212H64.5943C68.3443 75.7212 68.3599 75.7212 68.7974 75.3462C69.2349 74.9712 69.2349 74.9556 69.2818 72.815C69.3443 70.3619 69.2661 69.7369 68.8286 69.2994C68.5474 69.0181 68.2818 69.0025 64.563 69.0025C60.8911 69.0025 60.563 69.0181 60.2349 69.2994C59.8755 69.5806 59.8599 69.7056 59.7818 72.19L59.7036 74.7837L58.813 74.1744C58.3286 73.8462 57.6724 73.4244 57.3755 73.2525L56.813 72.9087L56.8443 58.1587C56.8911 43.5181 56.8911 43.3931 57.2193 42.9556C57.6099 42.4087 58.4536 41.9712 59.0943 41.9712C59.7505 41.9712 60.2193 41.4244 60.4068 40.4244C60.6411 39.1744 61.313 38.44 62.3911 38.2681C63.1724 38.1431 63.7974 37.815 63.8911 37.4869C63.938 37.3306 64.0161 36.7056 64.0786 36.1119C64.2036 34.7369 64.4536 33.7681 64.6255 33.94C64.7036 34.0181 64.8286 34.5025 64.9224 35.0025ZM54.313 61.0337V71.815L53.5005 71.4712C52.188 70.9556 49.5786 70.1275 47.7349 69.6744L46.0318 69.2681V61.7525V54.2369L50.1411 52.2525C52.3911 51.1587 54.2505 50.2681 54.2818 50.2681C54.2974 50.2525 54.313 55.0962 54.313 61.0337ZM81.6255 53.5962L83.063 54.315V64.4712V74.6275H79.1724C77.0318 74.6275 75.1724 74.6744 75.0318 74.7212C74.7974 74.815 74.7818 73.6744 74.7818 62.5494V50.2681L77.4849 51.565C78.9536 52.2837 80.8286 53.19 81.6255 53.5962ZM44.063 71.5025C51.3443 72.9244 56.6099 75.1587 59.3911 77.9712C61.4693 80.0806 62.2818 82.8775 61.7505 86.0025C61.6099 86.7994 61.4068 87.6587 61.2974 87.9244L61.0943 88.4244L59.5943 86.6431C56.6411 83.1431 52.8286 79.7525 49.938 78.065C48.4536 77.2056 47.688 77.2369 47.2818 78.2212C46.9693 78.9712 47.2818 79.4712 48.5005 80.19C51.4068 81.8775 54.8443 84.9556 57.7661 88.4556C59.7193 90.7837 59.7349 90.5962 57.5161 91.1744C53.8911 92.1275 50.7974 91.4556 48.3443 89.1744C45.2505 86.315 42.6724 80.0025 41.1255 71.5337C41.0161 70.8931 40.9849 70.8931 44.063 71.5025ZM66.6568 72.3619V73.2369L64.5161 73.19L62.3599 73.1431L62.313 72.315L62.2661 71.5025H64.4536H66.6568V72.3619ZM83.9224 77.3619C85.2974 77.4869 86.4693 77.5962 86.5474 77.5962C86.688 77.5962 85.2349 80.5181 84.063 82.5337C82.0786 85.9712 79.9536 88.815 77.9536 90.7369C76.5005 92.1119 75.6255 92.7525 74.188 93.4244C73.1724 93.9087 73.0786 93.9244 71.1099 93.9244C69.1568 93.9087 69.0161 93.8931 67.6411 93.3619C66.8599 93.0494 65.6099 92.4244 64.8599 91.9556L63.5161 91.1119L64.0005 90.7056C64.6568 90.1431 68.1255 88.1119 69.9224 87.2056C72.0786 86.1275 74.5161 85.1744 76.438 84.6275C78.1255 84.1587 78.4536 83.9556 78.6255 83.2837C78.7505 82.7837 78.2818 81.9869 77.7818 81.8619C77.2505 81.7369 74.7193 82.3775 72.7193 83.1587C70.7974 83.8931 67.2193 85.6587 65.5786 86.6431C64.8599 87.0806 64.2349 87.4087 64.2036 87.3775C64.1724 87.3462 64.2193 86.8462 64.3286 86.2525C64.438 85.6119 64.4849 84.5181 64.4224 83.4869L64.3286 81.7837L65.0474 81.0181C66.9224 79.0181 70.2661 77.7369 74.7505 77.2994C76.9849 77.0806 81.2505 77.1119 83.9224 77.3619Z" fill="#973131"/>
<path d="M60.1562 44.0781L59.7656 44.4688L59.8125 47.1406C59.8594 49.7344 59.875 49.8125 60.2344 50.1094C60.5625 50.3906 60.8906 50.4062 64.5312 50.4062H68.4844L68.8594 50C69.2188 49.625 69.2344 49.4688 69.2812 47.4844C69.3438 45.0156 69.2656 44.4219 68.8125 44C68.4844 43.7031 68.25 43.6875 64.5156 43.6875H60.5469L60.1562 44.0781ZM66.6562 47.0469V47.9219L64.5156 47.875L62.3594 47.8281L62.3125 47.2188C62.2188 46.1719 62.2031 46.1875 64.5469 46.1875H66.6562V47.0469Z" fill="#973131"/>
<path d="M60.1562 52.5156L59.7656 52.9062L59.8125 55.5781C59.8594 58.1719 59.875 58.25 60.2344 58.5469C60.5625 58.8281 60.8906 58.8438 64.5312 58.8438H68.4844L68.8594 58.4375C69.2188 58.0625 69.2344 57.9062 69.2812 55.9219C69.3438 53.4844 69.2656 52.8594 68.8281 52.4219C68.5469 52.1406 68.2812 52.125 64.5469 52.125H60.5469L60.1562 52.5156ZM66.6562 55.4844V56.3594L64.5156 56.3125L62.3594 56.2656L62.3125 55.6562C62.2188 54.6094 62.2031 54.625 64.5469 54.625H66.6562V55.4844Z" fill="#973131"/>
<path d="M60.1562 60.9531L59.7656 61.3438L59.8125 64.0156C59.8594 66.6094 59.875 66.6875 60.2344 66.9844C60.5625 67.2656 60.8906 67.2812 64.5312 67.2812H68.4844L68.8594 66.875C69.2188 66.5 69.2344 66.3438 69.2812 64.3594C69.3438 61.9219 69.2656 61.2969 68.8281 60.8594C68.5469 60.5781 68.2812 60.5625 64.5469 60.5625H60.5469L60.1562 60.9531ZM66.6562 63.9219V64.7969L64.5156 64.75L62.3594 64.7031L62.3125 63.875L62.2656 63.0625H64.4531H66.6562V63.9219Z" fill="#973131"/>
<path d="M47.8283 55.1719C47.3127 55.6719 47.2971 56.4688 47.7971 56.9375C48.1252 57.25 48.3283 57.2812 50.1565 57.2812C52.0471 57.2812 52.1565 57.2656 52.5158 56.8906C52.7658 56.6562 52.9065 56.3281 52.9065 56.0312C52.9065 55.7344 52.7658 55.4062 52.5158 55.1719C52.1565 54.7969 52.0471 54.7812 50.1721 54.7812C48.2971 54.7812 48.1877 54.7969 47.8283 55.1719Z" fill="#973131"/>
<path d="M48.1096 60.5625C47.3596 60.875 47.2033 62 47.8439 62.6094C48.2189 62.9688 48.3439 62.9844 50.2033 62.9844C52.1408 62.9844 52.1564 62.9844 52.5314 62.5469C53.0314 61.9531 53.0158 61.4219 52.4533 60.8594C52.0002 60.4063 51.9689 60.4063 50.2189 60.4219C49.2502 60.4219 48.2971 60.4844 48.1096 60.5625Z" fill="#973131"/>
<path d="M48.125 66.25C47.6094 66.4844 47.4375 66.7656 47.4375 67.3594C47.4375 68.4219 47.9844 68.6875 50.25 68.6875C51.9688 68.6875 52 68.6875 52.4531 68.2344C53.0156 67.6719 53.0312 67.1406 52.5312 66.5469C52.1562 66.125 52.1094 66.1094 50.375 66.0625C49.125 66.0469 48.4688 66.0938 48.125 66.25Z" fill="#973131"/>
<path d="M76.5787 55.1719C76.0944 55.6406 76.0787 56.3125 76.5162 56.875C76.8287 57.2812 76.86 57.2812 78.9225 57.2812C80.985 57.2812 81.0162 57.2812 81.3287 56.875C81.7662 56.3125 81.7506 55.6406 81.2662 55.1719C80.9069 54.7969 80.7975 54.7812 78.9225 54.7812C77.0475 54.7812 76.9381 54.7969 76.5787 55.1719Z" fill="#973131"/>
<path d="M76.8911 60.5938C76.0786 61.0313 75.9379 61.9844 76.5942 62.6094C76.9692 62.9688 77.0942 62.9844 78.9223 62.9844C80.7504 62.9844 80.8754 62.9688 81.2504 62.6094C81.9067 61.9844 81.7504 61.0313 80.9223 60.5938C80.4848 60.3594 77.3129 60.3594 76.8911 60.5938Z" fill="#973131"/>
<path d="M77.125 66.1406C76.5938 66.3438 76.1875 66.875 76.1875 67.3438C76.2031 68.3906 76.7969 68.6875 78.9219 68.6875C80.5781 68.6875 81.0781 68.5625 81.4531 68.0781C81.7813 67.6406 81.6875 66.9062 81.25 66.4844C80.875 66.1406 80.7188 66.1094 79.1094 66.0781C78.1406 66.0625 77.25 66.0781 77.125 66.1406Z" fill="#973131"/>
<path d="M76.5165 72.2223C76.0634 72.7848 76.0946 73.4567 76.579 73.941C76.9696 74.3317 77.0165 74.3473 79.0165 74.2848C80.9384 74.2379 81.079 74.2223 81.3603 73.8629C81.7509 73.3942 81.7353 72.7379 81.329 72.2223C81.0165 71.816 80.9853 71.816 78.9228 71.816C76.8603 71.816 76.829 71.816 76.5165 72.2223Z" fill="#973131"/>
</svg>
