<svg width="40" height="39" viewBox="0 0 40 39" fill="none" xmlns="http://www.w3.org/2000/svg">
<rect width="40" height="38.8572" rx="19.4286" fill="#EBF1FF"/>
<path d="M15.134 10.0742C19.0648 10.0667 22.268 13.2699 22.268 17.2082C22.268 21.139 19.0948 24.3272 15.164 24.3422C11.2107 24.3572 8 21.1615 8 17.2082C8 13.2624 11.1807 10.0817 15.134 10.0742ZM18.1796 17.7033C18.1796 17.8158 18.1796 17.9134 18.1796 18.0184C18.1796 18.6635 18.1796 19.3087 18.1796 19.9613C18.1796 20.2989 18.3672 20.5089 18.6522 20.5089C18.9298 20.5089 19.1323 20.2989 19.1323 19.9613C19.1323 18.1309 19.1323 16.308 19.1323 14.4776C19.1323 14.1251 18.9298 13.915 18.6372 13.9225C18.3522 13.93 18.1796 14.1326 18.1796 14.4776C18.1796 15.1228 18.1796 15.7679 18.1796 16.4206C18.1796 16.5181 18.1796 16.6156 18.1796 16.7206H17.527C17.5045 16.6231 17.482 16.5406 17.467 16.4581C17.1369 15.0178 15.8016 13.9225 14.3463 13.93C14.1888 13.93 13.9862 14.0126 13.8887 14.1251C13.8062 14.2301 13.7987 14.4476 13.8362 14.5902C13.9037 14.8152 14.1138 14.8677 14.3313 14.8752C15.3365 14.9352 16.0342 15.4454 16.4318 16.3605C16.4768 16.4656 16.4918 16.5856 16.5293 16.7281C16.3868 16.7281 16.2892 16.7281 16.1842 16.7281C14.6389 16.7281 13.0936 16.7281 11.5482 16.7281C11.1432 16.7281 10.9556 16.9157 10.9631 17.3057C10.9931 18.626 11.8633 19.8338 13.1161 20.2914C14.3988 20.7564 15.8166 20.4039 16.7093 19.4062C17.1444 18.9186 17.3995 18.3484 17.527 17.7033H18.1871H18.1796Z" fill="#407BFF"/>
<path d="M18.082 24.7676C21.7278 23.3123 23.7757 19.584 23.1006 15.7657C24.6909 15.2031 27.5865 15.4206 29.6869 17.386C31.9824 19.524 32.6426 22.8097 31.3373 25.6303C30.0395 28.4359 27.0614 30.1012 23.9933 29.7261C21.2477 29.3885 18.5696 27.1531 18.082 24.7751V24.7676ZM24.8634 23.8149C25.2835 23.8149 25.7111 23.8224 26.1312 23.8149C26.3037 23.8149 26.3788 23.8749 26.4388 24.0249C26.6113 24.46 26.7913 24.8876 26.9789 25.3227C27.1214 25.6603 27.3615 25.7803 27.639 25.6753C27.9166 25.5702 28.0066 25.2777 27.8641 24.9401C27.0314 22.9447 26.1912 20.9493 25.3585 18.9539C25.261 18.7288 25.126 18.5638 24.8634 18.5638C24.6159 18.5638 24.4809 18.7213 24.3908 18.9389C23.5507 20.9418 22.7105 22.9447 21.8778 24.9476C21.7428 25.2702 21.8328 25.5552 22.0954 25.6603C22.3654 25.7728 22.6205 25.6453 22.763 25.3227C22.9505 24.8876 23.1381 24.445 23.3106 24.0024C23.3706 23.8599 23.4456 23.8074 23.5957 23.8074C24.0158 23.8149 24.4359 23.8074 24.8634 23.8074V23.8149Z" fill="#407BFF"/>
<path d="M17.1801 28.9185C17.0601 28.8285 16.9775 28.776 16.9025 28.701C16.73 28.5284 16.7075 28.3259 16.8275 28.1084C16.9475 27.9058 17.2026 27.8083 17.4126 27.9208C17.8777 28.1834 18.3278 28.4684 18.7704 28.761C18.9879 28.911 19.0105 29.1586 18.8604 29.4136C18.6279 29.8037 18.3803 30.1938 18.1328 30.5839C17.9527 30.8614 17.6977 30.9289 17.4651 30.7864C17.2176 30.6364 17.1651 30.3738 17.3226 30.0738C17.3451 30.0288 17.3751 29.9762 17.4201 29.8937C17.2176 29.8937 17.045 29.8937 16.88 29.8937C14.5395 29.9387 12.4241 28.4909 11.6214 26.3005C11.5689 26.158 11.5314 25.9554 11.5989 25.8504C11.6814 25.7154 11.869 25.5953 12.0265 25.5653C12.2741 25.5203 12.4166 25.7079 12.4991 25.9254C12.7617 26.6456 13.1742 27.2607 13.7369 27.7708C14.652 28.596 15.9798 29.046 17.1801 28.9035V28.9185Z" fill="#407BFF"/>
<path d="M23.228 9.9455C23.3405 10.028 23.408 10.073 23.468 10.1255C23.6706 10.2906 23.7156 10.5456 23.5806 10.7557C23.453 10.9657 23.183 11.0557 22.9654 10.9282C22.5228 10.6732 22.0802 10.3956 21.6526 10.1105C21.4201 9.9605 21.3826 9.71295 21.5251 9.4654C21.7652 9.05281 22.0202 8.64773 22.2828 8.25015C22.4478 7.9951 22.7029 7.93508 22.9354 8.07011C23.1755 8.20514 23.2355 8.47519 23.093 8.75275C23.0629 8.82026 23.0254 8.88028 22.9954 8.94029C23.4755 8.96279 23.9481 8.94779 24.3982 9.0228C26.5212 9.36788 27.984 10.5606 28.7866 12.556C28.9217 12.8936 28.8166 13.1787 28.5316 13.2762C28.2615 13.3662 28.0215 13.2237 27.894 12.8936C27.1363 10.9432 25.2609 9.74296 23.213 9.9455H23.228Z" fill="#407BFF"/>
<path d="M16.5127 17.7031C16.3401 18.7758 15.2524 19.6085 14.1347 19.541C13.0769 19.481 12.0642 18.6108 12.0117 17.7031H16.5127Z" fill="#407BFF"/>
<path d="M24.8699 20.2812C25.2375 21.1664 25.5826 21.9841 25.9351 22.8393H23.8047C24.1573 21.9991 24.4948 21.1739 24.8699 20.2812Z" fill="#407BFF"/>
</svg>
